<svg width="99" height="99" viewBox="0 0 99 99" fill="none" xmlns="http://www.w3.org/2000/svg">
    <path d="M9.785 38.214h68.136v9.332h9.734V19.55c0-5.132-4.38-9.332-9.734-9.332h-4.867V.888h-9.733v9.331H24.386V.888h-9.734v9.331H9.785C4.383 10.22.1 14.42.1 19.551L.052 84.872c0 5.132 4.331 9.332 9.733 9.332h34.068v-9.332H9.785V38.214zm0-18.663h68.136v9.332H9.785V19.55zM96.61 67.515l-3.456 3.313-10.317-9.892 3.455-3.312c1.898-1.82 4.964-1.82 6.862 0l3.456 3.313c1.898 1.82 1.898 4.759 0 6.578zM79.38 64.25 89.7 74.141 63.905 98.869H53.587v-9.891l25.794-24.729z" fill="#fff"/>
</svg>
