<svg width="45" height="45" viewBox="0 0 45 45" fill="none" xmlns="http://www.w3.org/2000/svg">
    <path d="M15.938 7.5c-3.603 0-6.563 2.96-6.563 6.562a6.45 6.45 0 0 0 .666 2.813H8.438c-3.602 0-6.562 2.96-6.562 6.562 0 3.515 2.824 6.398 6.306 6.537-.421.864-.681 1.82-.681 2.838 0 3.603 2.96 6.563 6.563 6.563h21.562a1.873 1.873 0 0 0 1.902-1.875 1.875 1.875 0 0 0-1.902-1.875H14.062a2.783 2.783 0 0 1-2.812-2.813A2.783 2.783 0 0 1 14.063 30h4.687v3.75l5.625-2.813L30 33.75V30h5.625a1.873 1.873 0 0 0 1.902-1.875 1.875 1.875 0 0 0-1.902-1.875H30v-5.625h5.625a1.873 1.873 0 0 0 1.902-1.875 1.876 1.876 0 0 0-1.902-1.875H15.937a2.783 2.783 0 0 1-2.812-2.813 2.783 2.783 0 0 1 2.813-2.812h19.687a1.873 1.873 0 0 0 1.902-1.875A1.875 1.875 0 0 0 35.625 7.5H15.937zm-7.5 13.125H18.75v5.625H8.437a2.783 2.783 0 0 1-2.812-2.813 2.783 2.783 0 0 1 2.813-2.812z" fill="#1660A5"/>
</svg>
