<svg width="55" height="55" viewBox="0 0 55 55" fill="none" xmlns="http://www.w3.org/2000/svg">
    <path d="M28.499 53.798c14.524 0 26.298-11.774 26.298-26.298S43.023 1.202 28.499 1.202 2.201 12.976 2.201 27.5 13.975 53.798 28.5 53.798z" fill="#0091EA"/>
    <path d="M43.63 24.389a9.342 9.342 0 0 0-9.343-8.934 9.37 9.37 0 0 0-7.016 3.166 9.37 9.37 0 0 0-7.017-3.166 9.344 9.344 0 0 0-9.326 8.658c-.016.103-.016.236-.016.362v10.552a2.337 2.337 0 0 0 2.341 2.341h.056a2.337 2.337 0 0 0 2.341-2.34V24.812h.016c0-2.57 2.09-4.652 4.651-4.652 2.57 0 4.651 2.09 4.651 4.652h.016v8.62a2.337 2.337 0 0 0 2.342 2.34h.055a2.337 2.337 0 0 0 2.341-2.34v-8.644a4.64 4.64 0 0 1 4.651-4.62c2.562 0 4.675 2.098 4.675 4.66h.016v10.23c0 1.28 1.045 2.31 2.31 2.31h.055c1.281 0 2.31-1.045 2.31-2.31V24.623c-.11-.118-.11-.173-.11-.235zM34.79 38.28c-.103-.173-.448.173-.448.173-1.297 1.406-3.984 2.31-6.773 2.31-2.79 0-5.461-.904-6.773-2.31 0 0-.346-.362-.448-.173-.133.204.07.534.07.534 1.659 2.397 4.189 3.473 7.15 3.473 2.963 0 5.493-1.076 7.15-3.473.016-.008.205-.33.071-.534z" fill="#fff"/>
</svg>
