<svg width="32" height="36" viewBox="0 0 32 36" fill="none" xmlns="http://www.w3.org/2000/svg">
    <path fill-rule="evenodd" clip-rule="evenodd" d="M28.444 3.556h-1.777V0H23.11v3.556H8.89V0H5.333v3.556H3.556A3.555 3.555 0 0 0 0 7.11V32a3.555 3.555 0 0 0 3.556 3.556h24.888C30.4 35.556 32 33.956 32 32V7.111c0-1.955-1.6-3.555-3.556-3.555zm0 28.444H3.556V12.444h24.888V32zM6.222 19.556a4.446 4.446 0 0 1 4.445-4.445 4.446 4.446 0 0 1 4.444 4.445A4.446 4.446 0 0 1 10.667 24a4.446 4.446 0 0 1-4.445-4.444z" fill="#1660A5"/>
</svg>
