<svg width="40" height="40" viewBox="0 0 40 40" fill="none" xmlns="http://www.w3.org/2000/svg">
    <path d="M31.667 5H8.333A3.337 3.337 0 0 0 5 8.333v23.334A3.337 3.337 0 0 0 8.333 35h23.334A3.337 3.337 0 0 0 35 31.667V8.333A3.337 3.337 0 0 0 31.667 5zM12.5 30a2.5 2.5 0 0 1 0-5 2.5 2.5 0 0 1 0 5zm9.167 0c-.92 0-1.667-.747-1.667-1.667A8.334 8.334 0 0 0 11.667 20a1.667 1.667 0 0 1 0-3.333c6.443 0 11.666 5.223 11.666 11.666 0 .92-.746 1.667-1.666 1.667zm6.666 0c-.92 0-1.666-.747-1.666-1.667 0-8.285-6.715-15-15-15a1.667 1.667 0 0 1 0-3.333C21.792 10 30 18.208 30 28.333c0 .92-.747 1.667-1.667 1.667z" fill="#1660A5"/>
</svg>
