<svg width="36" height="36" viewBox="0 0 36 36" fill="none" xmlns="http://www.w3.org/2000/svg">
    <path d="M31.763 0c-.887 0-1.697.531-2.095 1.367L28.421 4 16.305 9.48c-.697.316-1.147 1.036-1.147 1.836V24.68c0 .8.45 1.526 1.147 1.84L28.421 32l1.247 2.633c.398.836 1.208 1.367 2.095 1.367 1.294 0 2.342-1.107 2.342-2.473v-12.07a3.9 3.9 0 0 0 1.386-1.461 4.172 4.172 0 0 0 0-3.994 3.902 3.902 0 0 0-1.386-1.463V2.473C34.105 1.107 33.057 0 31.763 0zM3.789 10C1.705 10 0 11.8 0 14v8c0 2.2 1.705 4 3.79 4h3.789v8c0 1.104.849 2 1.895 2s1.894-.896 1.894-2V12c0-1.104-.848-2-1.894-2H3.789z" fill="#1660A5"/>
</svg>
