<svg width="40" height="40" viewBox="0 0 40 40" fill="none" xmlns="http://www.w3.org/2000/svg">
    <path d="M8.333 3.333a3.333 3.333 0 1 0 0 6.667 3.333 3.333 0 0 0 0-6.667zM16.666 5a1.667 1.667 0 0 0 0 3.333h15v15h-3.333v-1.666c0-.92-.747-1.667-1.667-1.667h-3.333c-.92 0-1.667.747-1.667 1.667v1.666h-3.333a1.667 1.667 0 0 0 0 3.334H35a1.667 1.667 0 0 0 0-3.334V7.5A2.5 2.5 0 0 0 32.5 5H16.666zm-10 6.667A3.332 3.332 0 0 0 3.333 15v20a1.667 1.667 0 0 0 3.333 0v-8.333H10V35a1.667 1.667 0 0 0 3.333 0V15h8.333a1.667 1.667 0 0 0 0-3.333h-15z" fill="#1660A5"/>
</svg>
